<?xml version="1.0" encoding="utf-8"?>
<!-- Generator: Adobe Illustrator 22.1.0, SVG Export Plug-In . SVG Version: 6.00 Build 0)  -->
<svg version="1.1" id="Livello_1" xmlns:sketch="http://www.bohemiancoding.com/sketch/ns"
	 xmlns="http://www.w3.org/2000/svg" xmlns:xlink="http://www.w3.org/1999/xlink" x="0px" y="0px" viewBox="0 0 99.2 99.2"
	 style="enable-background:new 0 0 99.2 99.2;" xml:space="preserve">
<title>glasses</title>
<desc>Created with Sketch.</desc>
<g sketch:type="MSPage">
	<g sketch:type="MSArtboardGroup">
		<path sketch:type="MSShapeGroup" d="M93.6,35.9c-0.3-0.1-7.5-3.4-20.4-3.4c-7.1,0-11,1.1-14.5,2.1c-2.8,0.8-5.3,1.5-9.1,1.5
			c-3.9,0-6.3-0.7-9.1-1.5c-3.4-1-7.3-2.1-14.5-2.1c-12.9,0-20.1,3.2-20.4,3.4c-0.4,0.2-0.6,0.5-0.7,1l-0.4,5.5c0,0.5,0.3,1,0.7,1.1
			c0.5,0.2,1.1,0.6,1.1,0.7c0.1,0.2,0.2,0.8,0.4,1.7c0.6,2.8,1.7,8.1,3,11.6c1.5,4,3.2,5.8,7,7.4c2.3,1,5.8,1.6,9.2,1.6
			c3.3,0,6.4-0.6,8.9-1.7C41.4,62,43,57.8,45,52.3c0.3-0.8,0.5-1.5,0.8-2.2c1.4-4,1.6-4.5,3.8-4.5s2.5,0.5,3.8,4.5
			c0.2,0.7,0.5,1.4,0.8,2.2c2,5.4,3.5,9.7,10.1,12.5c2.5,1.1,5.6,1.7,8.9,1.7c3.4,0,6.9-0.6,9.2-1.6c3.8-1.6,5.4-3.4,7-7.4
			c1.3-3.5,2.4-8.7,3-11.5c0.2-0.9,0.3-1.5,0.4-1.7c0.1-0.2,0.7-0.6,1.2-0.8c0.5-0.2,0.8-0.7,0.7-1.1l-0.4-5.5
			C94.2,36.4,93.9,36.1,93.6,35.9L93.6,35.9L93.6,35.9z M38.4,55.5c-2.1,4.3-6.4,6.4-12.8,6.4c-5.2,0-8.3-1.2-10.3-3.8
			c-1.9-2.5-4.2-13.3-2.7-16.7c1.4-3.2,8-4.3,13.7-4.3c6,0,13.1,1.2,14.5,3.9C42.3,43.9,41.4,49.3,38.4,55.5L38.4,55.5L38.4,55.5z
			 M83.9,58.1c-1.9,2.6-5.1,3.8-10.3,3.8c-6.4,0-10.8-2.2-12.8-6.4c-3-6.2-3.9-11.6-2.4-14.4c1.5-2.7,8.5-3.9,14.5-3.9
			c5.7,0,12.2,1.1,13.7,4.3C88.1,44.8,85.8,55.6,83.9,58.1L83.9,58.1L83.9,58.1z"/>
	</g>
</g>
</svg>
